<svg width="32" height="32" viewBox="0 0 32 32" fill="none" xmlns="http://www.w3.org/2000/svg">
<path d="M18.5934 3.89333L19.9267 1.84667C19.9591 1.80235 19.9799 1.75058 19.987 1.69613C19.9941 1.64169 19.9874 1.58632 19.9675 1.53515C19.9475 1.48399 19.915 1.43867 19.8729 1.4034C19.8308 1.36812 19.7805 1.34403 19.7267 1.33333L18.24 0.946665C18.1891 0.932871 18.1356 0.931357 18.084 0.942249C18.0324 0.953141 17.9841 0.976127 17.9431 1.00932C17.9021 1.04251 17.8696 1.08496 17.8482 1.13317C17.8268 1.18139 17.8171 1.23399 17.82 1.28667L18 3.73333C18.0088 3.79836 18.0366 3.85933 18.08 3.90862C18.1233 3.95791 18.1802 3.99331 18.2435 4.0104C18.3069 4.02748 18.3739 4.02549 18.4361 4.00466C18.4983 3.98384 18.553 3.94511 18.5934 3.89333Z" fill="#00DFEB" stroke="#45413C" stroke-linecap="round" stroke-linejoin="round"/>
<path d="M22.9734 5.8L24.88 4.28666C24.9227 4.25576 24.9575 4.21518 24.9814 4.16824C25.0054 4.12131 25.0179 4.06936 25.0179 4.01666C25.0179 3.96396 25.0054 3.91202 24.9814 3.86508C24.9575 3.81815 24.9227 3.77757 24.88 3.74666L23.5734 2.90666C23.5292 2.87736 23.4786 2.85902 23.4259 2.85317C23.3732 2.84732 23.3199 2.85413 23.2703 2.87304C23.2208 2.89194 23.1764 2.9224 23.141 2.96187C23.1056 3.00134 23.0801 3.0487 23.0667 3.1L22.44 5.45333C22.4209 5.52168 22.4242 5.59435 22.4492 5.66075C22.4743 5.72714 22.5199 5.78381 22.5794 5.82249C22.6389 5.86116 22.7092 5.87984 22.7801 5.8758C22.8509 5.87175 22.9186 5.8452 22.9734 5.8Z" fill="#00DFEB" stroke="#45413C" stroke-linecap="round" stroke-linejoin="round"/>
<path d="M13.4066 3.89333L12.0733 1.84667C12.0409 1.80235 12.0201 1.75058 12.013 1.69613C12.0059 1.64169 12.0126 1.58632 12.0325 1.53515C12.0525 1.48399 12.085 1.43867 12.1271 1.4034C12.1691 1.36812 12.2194 1.34403 12.2733 1.33333L13.76 0.946665C13.8109 0.932871 13.8644 0.931357 13.916 0.942249C13.9676 0.953141 14.0159 0.976127 14.0569 1.00932C14.0979 1.04251 14.1304 1.08496 14.1518 1.13317C14.1732 1.18139 14.1829 1.23399 14.18 1.28667L14 3.73333C13.9912 3.79836 13.9633 3.85933 13.92 3.90862C13.8767 3.95791 13.8198 3.99331 13.7564 4.0104C13.6931 4.02748 13.6261 4.02549 13.5639 4.00466C13.5016 3.98384 13.447 3.94511 13.4066 3.89333Z" fill="#00DFEB" stroke="#45413C" stroke-linecap="round" stroke-linejoin="round"/>
<path d="M9.02664 5.8L7.11997 4.28666C7.07729 4.25576 7.04254 4.21518 7.01857 4.16824C6.99461 4.12131 6.98212 4.06936 6.98212 4.01666C6.98212 3.96397 6.99461 3.91202 7.01857 3.86508C7.04254 3.81815 7.07729 3.77757 7.11997 3.74666L8.39997 2.90666C8.44417 2.87736 8.49472 2.85902 8.54743 2.85317C8.60014 2.84732 8.65348 2.85413 8.70302 2.87304C8.75257 2.89194 8.79689 2.9224 8.8323 2.96187C8.86772 3.00134 8.8932 3.0487 8.90664 3.1L9.53331 5.45333C9.54629 5.51751 9.54008 5.5841 9.51545 5.64478C9.49082 5.70545 9.44886 5.75753 9.39482 5.79451C9.34077 5.83149 9.27703 5.85173 9.21155 5.8527C9.14608 5.85368 9.08176 5.83535 9.02664 5.8Z" fill="#00DFEB" stroke="#45413C" stroke-linecap="round" stroke-linejoin="round"/>
<path d="M9.60664 28.8067H4.43998C4.26317 28.8067 4.0936 28.7364 3.96857 28.6114C3.84355 28.4864 3.77331 28.3168 3.77331 28.14L3.77331 22.9467H10.2466V28.1667C10.2401 28.3343 10.1705 28.4933 10.0519 28.6119C9.93327 28.7305 9.77428 28.8001 9.60664 28.8067Z" fill="#FFE500"/>
<path d="M3.79333 25.2467C4.81304 25.6839 5.91053 25.9106 7.02 25.9133C8.12932 25.9092 9.22652 25.6825 10.2467 25.2467V22.9733H3.79333V25.2467Z" fill="#EBCB00"/>
<path d="M9.60664 28.8067H4.43998C4.26317 28.8067 4.0936 28.7364 3.96857 28.6114C3.84355 28.4864 3.77331 28.3168 3.77331 28.14L3.77331 22.9467H10.2466V28.1667C10.2401 28.3343 10.1705 28.4933 10.0519 28.6119C9.93327 28.7305 9.77428 28.8001 9.60664 28.8067Z" stroke="#45413C" stroke-linecap="round" stroke-linejoin="round"/>
<path d="M12.3934 17.6733L11.48 18.5333V11.1533C11.4845 10.9966 11.458 10.8405 11.4021 10.6941C11.3462 10.5476 11.2619 10.4135 11.1542 10.2996C11.0465 10.1857 10.9174 10.0941 10.7742 10.0301C10.6311 9.96615 10.4768 9.93099 10.32 9.92667C10.0124 9.92667 9.71732 10.0489 9.49978 10.2664C9.28224 10.484 9.16003 10.779 9.16003 11.0867V10.04C9.16995 9.87014 9.14536 9.70003 9.08775 9.53993C9.03014 9.37983 8.94071 9.23306 8.82483 9.10847C8.70896 8.98387 8.56905 8.88403 8.41354 8.81498C8.25804 8.74592 8.09016 8.70908 7.92003 8.70667C7.75121 8.70373 7.58359 8.73548 7.42755 8.79996C7.27151 8.86444 7.13037 8.96027 7.01287 9.08152C6.89537 9.20277 6.80402 9.34685 6.74447 9.50484C6.68493 9.66283 6.65845 9.83136 6.66669 10V9.92667C6.6694 9.77359 6.64125 9.62153 6.58391 9.47957C6.52658 9.33761 6.44123 9.20865 6.33297 9.10039C6.22471 8.99213 6.09575 8.90678 5.95379 8.84945C5.81183 8.79211 5.65977 8.76396 5.50669 8.76667C5.19904 8.76667 4.90399 8.88888 4.68645 9.10642C4.46891 9.32397 4.34669 9.61902 4.34669 9.92667V11.88C4.37332 11.7315 4.36665 11.5789 4.32717 11.4332C4.2877 11.2876 4.21639 11.1525 4.1184 11.0377C4.02041 10.9229 3.89818 10.8314 3.76051 10.7695C3.62284 10.7077 3.47317 10.6772 3.3223 10.6802C3.17142 10.6833 3.02309 10.7197 2.88801 10.787C2.75292 10.8543 2.63445 10.9507 2.54112 11.0693C2.4478 11.1879 2.38195 11.3257 2.34833 11.4728C2.31471 11.6199 2.31415 11.7726 2.34669 11.92V20.2333C2.34137 21.3779 2.79051 22.4778 3.59548 23.2916C4.40045 24.1053 5.49545 24.5663 6.64003 24.5733C7.58309 24.5742 8.51576 24.3764 9.37726 23.9927C10.2388 23.609 11.0098 23.0482 11.64 22.3467L15.1 18.5933C15.2157 18.4761 15.2805 18.318 15.2805 18.1533C15.2805 17.9887 15.2157 17.8306 15.1 17.7133C14.7456 17.3505 14.2621 17.1427 13.7549 17.1352C13.2478 17.1277 12.7583 17.3212 12.3934 17.6733Z" fill="#FFE500"/>
<path d="M5.52669 10.1133C5.67809 10.1133 5.82798 10.1434 5.96761 10.202C6.10725 10.2605 6.23382 10.3463 6.33994 10.4543C6.44607 10.5623 6.52962 10.6903 6.58572 10.8309C6.64182 10.9716 6.66934 11.122 6.66669 11.2733V11.3333C6.66669 11.0062 6.79662 10.6925 7.02792 10.4612C7.25921 10.2299 7.57292 10.1 7.90002 10.1C8.07015 10.1024 8.23803 10.1393 8.39354 10.2083C8.54904 10.2774 8.68895 10.3772 8.80482 10.5018C8.9207 10.6264 9.01014 10.7732 9.06774 10.9333C9.12535 11.0934 9.14994 11.2635 9.14002 11.4333V12.4667C9.14702 12.1602 9.27507 11.8689 9.49618 11.6565C9.71729 11.4442 10.0135 11.328 10.32 11.3333C10.4764 11.3368 10.6306 11.3711 10.7737 11.4344C10.9168 11.4977 11.046 11.5886 11.1538 11.702C11.2616 11.8154 11.3459 11.949 11.4019 12.0951C11.4579 12.2412 11.4845 12.3969 11.48 12.5533V11.1533C11.4845 10.9966 11.458 10.8405 11.4021 10.6941C11.3462 10.5476 11.2619 10.4135 11.1542 10.2996C11.0465 10.1857 10.9174 10.0941 10.7742 10.0301C10.6311 9.96615 10.4767 9.93099 10.32 9.92667C10.0124 9.92667 9.71732 10.0489 9.49977 10.2664C9.28223 10.484 9.16002 10.779 9.16002 11.0867V10.04C9.16994 9.87014 9.14535 9.70003 9.08774 9.53993C9.03014 9.37983 8.9407 9.23306 8.82482 9.10847C8.70895 8.98387 8.56904 8.88403 8.41354 8.81498C8.25803 8.74592 8.09015 8.70908 7.92002 8.70667C7.7512 8.70373 7.58359 8.73548 7.42754 8.79996C7.2715 8.86444 7.13036 8.96027 7.01286 9.08152C6.89536 9.20277 6.80401 9.34685 6.74447 9.50484C6.68492 9.66283 6.65845 9.83136 6.66669 10V9.92667C6.6694 9.77359 6.64124 9.62153 6.58391 9.47957C6.52657 9.33761 6.44123 9.20865 6.33297 9.10039C6.2247 8.99213 6.09575 8.90678 5.95378 8.84945C5.81182 8.79211 5.65977 8.76396 5.50669 8.76667C5.19903 8.76667 4.90398 8.88888 4.68644 9.10642C4.4689 9.32397 4.34669 9.61902 4.34669 9.92667V11.3C4.34307 11.1437 4.37107 10.9884 4.429 10.8432C4.48694 10.698 4.57361 10.5661 4.68382 10.4552C4.79403 10.3444 4.92551 10.257 5.07035 10.1982C5.21519 10.1395 5.37041 10.1106 5.52669 10.1133Z" fill="#FFF48C"/>
<path d="M3.33334 12.2133C3.46698 12.2125 3.59946 12.238 3.72318 12.2885C3.84689 12.3391 3.95939 12.4136 4.05419 12.5078C4.149 12.6019 4.22424 12.714 4.27558 12.8373C4.32692 12.9607 4.35335 13.093 4.35335 13.2267V11.8533C4.37997 11.7048 4.3733 11.5522 4.33383 11.4065C4.29435 11.2609 4.22304 11.1258 4.12505 11.011C4.02706 10.8963 3.90483 10.8047 3.76716 10.7429C3.6295 10.6811 3.47983 10.6506 3.32895 10.6536C3.17807 10.6566 3.02974 10.6931 2.89466 10.7603C2.75957 10.8276 2.6411 10.924 2.54778 11.0426C2.45445 11.1612 2.38861 11.299 2.35498 11.4461C2.32136 11.5932 2.3208 11.746 2.35334 11.8933V13.2667C2.34433 12.9972 2.44236 12.7352 2.626 12.5378C2.80964 12.3404 3.06395 12.2238 3.33334 12.2133Z" fill="#FFF48C"/>
<path d="M7.02002 19.5C8.58452 19.3531 10.1578 19.3242 11.7267 19.4133C12.8534 18.7467 14.1534 18.2267 14.8934 18.8067L15.0867 18.5933C15.2023 18.4761 15.2671 18.318 15.2671 18.1533C15.2671 17.9886 15.2023 17.8306 15.0867 17.7133C14.734 17.3625 14.2589 17.1622 13.7614 17.1548C13.264 17.1473 12.7831 17.3332 12.42 17.6733L11.48 18.5333H9.12669C8.72652 18.5325 8.33094 18.6185 7.96724 18.7854C7.60354 18.9523 7.28037 19.1961 7.02002 19.5Z" fill="#FFF48C"/>
<path d="M4.36664 11.8533V15.8333" stroke="#45413C" stroke-linecap="round" stroke-linejoin="round"/>
<path d="M6.68665 9.97334V15.8333" stroke="#45413C" stroke-linecap="round" stroke-linejoin="round"/>
<path d="M9.15997 11.0867V15.8333" stroke="#45413C" stroke-linecap="round" stroke-linejoin="round"/>
<path d="M11.48 18.5333H9.12669C8.72652 18.5325 8.33095 18.6185 7.96724 18.7854C7.60354 18.9523 7.28037 19.1961 7.02002 19.5" stroke="#45413C" stroke-linecap="round" stroke-linejoin="round"/>
<path d="M12.3934 17.6733L11.48 18.5333V11.1533C11.4845 10.9966 11.458 10.8405 11.4021 10.6941C11.3462 10.5476 11.2619 10.4135 11.1542 10.2996C11.0465 10.1857 10.9174 10.0941 10.7742 10.0301C10.6311 9.96615 10.4768 9.93099 10.32 9.92667C10.0124 9.92667 9.71732 10.0489 9.49978 10.2664C9.28224 10.484 9.16003 10.779 9.16003 11.0867V10.04C9.16995 9.87014 9.14536 9.70003 9.08775 9.53993C9.03014 9.37983 8.94071 9.23306 8.82483 9.10847C8.70896 8.98387 8.56905 8.88403 8.41354 8.81498C8.25804 8.74592 8.09016 8.70908 7.92003 8.70667C7.75121 8.70373 7.58359 8.73548 7.42755 8.79996C7.27151 8.86444 7.13037 8.96027 7.01287 9.08152C6.89537 9.20277 6.80402 9.34685 6.74447 9.50484C6.68493 9.66283 6.65845 9.83136 6.66669 10V9.92667C6.6694 9.77359 6.64125 9.62153 6.58391 9.47957C6.52658 9.33761 6.44123 9.20865 6.33297 9.10039C6.22471 8.99213 6.09575 8.90678 5.95379 8.84945C5.81183 8.79211 5.65977 8.76396 5.50669 8.76667C5.19904 8.76667 4.90399 8.88888 4.68645 9.10642C4.46891 9.32397 4.34669 9.61902 4.34669 9.92667V11.88C4.37332 11.7315 4.36665 11.5789 4.32717 11.4332C4.2877 11.2876 4.21639 11.1525 4.1184 11.0377C4.02041 10.9229 3.89818 10.8314 3.76051 10.7695C3.62284 10.7077 3.47317 10.6772 3.3223 10.6802C3.17142 10.6833 3.02309 10.7197 2.88801 10.787C2.75292 10.8543 2.63445 10.9507 2.54112 11.0693C2.4478 11.1879 2.38195 11.3257 2.34833 11.4728C2.31471 11.6199 2.31415 11.7726 2.34669 11.92V20.2333C2.34137 21.3779 2.79051 22.4778 3.59548 23.2916C4.40045 24.1053 5.49545 24.5663 6.64003 24.5733C7.58309 24.5742 8.51576 24.3764 9.37726 23.9927C10.2388 23.609 11.0098 23.0482 11.64 22.3467L15.1 18.5933C15.2157 18.4761 15.2805 18.318 15.2805 18.1533C15.2805 17.9887 15.2157 17.8306 15.1 17.7133C14.7456 17.3505 14.2621 17.1427 13.7549 17.1352C13.2478 17.1277 12.7583 17.3212 12.3934 17.6733Z" stroke="#45413C" stroke-linecap="round" stroke-linejoin="round"/>
<path d="M21.7534 22.9733H28.2V28.1667C28.2 28.3435 28.1298 28.5131 28.0048 28.6381C27.8797 28.7631 27.7102 28.8333 27.5334 28.8333H22.3934C22.2165 28.8333 22.047 28.7631 21.9219 28.6381C21.7969 28.5131 21.7267 28.3435 21.7267 28.1667V22.9733H21.7534Z" fill="#FFE500"/>
<path d="M28.2067 25.2467C26.1402 26.1001 23.8198 26.1001 21.7534 25.2467V22.9733H28.2067V25.2467Z" fill="#EBCB00"/>
<path d="M21.7534 22.9733H28.2V28.1667C28.2 28.3435 28.1298 28.5131 28.0048 28.6381C27.8797 28.7631 27.7102 28.8333 27.5334 28.8333H22.3934C22.2165 28.8333 22.047 28.7631 21.9219 28.6381C21.7969 28.5131 21.7267 28.3435 21.7267 28.1667V22.9733H21.7534Z" stroke="#45413C" stroke-linecap="round" stroke-linejoin="round"/>
<path d="M19.6067 17.6733L20.52 18.5333V11.1533C20.5156 10.9966 20.542 10.8405 20.5979 10.6941C20.6538 10.5476 20.7381 10.4135 20.8458 10.2996C20.9535 10.1857 21.0826 10.0941 21.2258 10.0301C21.3689 9.96615 21.5233 9.93099 21.68 9.92667C21.9876 9.92667 22.2827 10.0489 22.5002 10.2664C22.7178 10.484 22.84 10.779 22.84 11.0867V10.04C22.8301 9.87014 22.8547 9.70003 22.9123 9.53993C22.9699 9.37983 23.0593 9.23306 23.1752 9.10847C23.2911 8.98387 23.431 8.88403 23.5865 8.81498C23.742 8.74592 23.9099 8.70908 24.08 8.70667C24.2488 8.70373 24.4164 8.73548 24.5725 8.79996C24.7285 8.86444 24.8697 8.96027 24.9871 9.08152C25.1046 9.20277 25.196 9.34685 25.2555 9.50484C25.3151 9.66283 25.3416 9.83136 25.3333 10V9.92667C25.3306 9.77359 25.3588 9.62153 25.4161 9.47957C25.4734 9.33761 25.5588 9.20865 25.667 9.10039C25.7753 8.99213 25.9043 8.90678 26.0462 8.84945C26.1882 8.79211 26.3402 8.76396 26.4933 8.76667C26.801 8.76667 27.096 8.88888 27.3136 9.10642C27.5311 9.32397 27.6533 9.61902 27.6533 9.92667V11.88C27.6267 11.7315 27.6334 11.5789 27.6728 11.4332C27.7123 11.2876 27.7836 11.1525 27.8816 11.0377C27.9796 10.9229 28.1018 10.8314 28.2395 10.7695C28.3772 10.7077 28.5268 10.6772 28.6777 10.6802C28.8286 10.6833 28.9769 10.7197 29.112 10.787C29.2471 10.8543 29.3656 10.9507 29.4589 11.0693C29.5522 11.1879 29.6181 11.3257 29.6517 11.4728C29.6853 11.6199 29.6859 11.7726 29.6533 11.92V20.2333C29.6586 21.3779 29.2095 22.4778 28.4045 23.2916C27.5996 24.1053 26.5046 24.5663 25.36 24.5733C24.4169 24.5742 23.4843 24.3764 22.6228 23.9927C21.7613 23.609 20.9903 23.0482 20.36 22.3467L16.9 18.5933C16.7844 18.4761 16.7195 18.318 16.7195 18.1533C16.7195 17.9887 16.7844 17.8306 16.9 17.7133C17.2544 17.3505 17.738 17.1427 18.2451 17.1352C18.7522 17.1277 19.2417 17.3212 19.6067 17.6733Z" fill="#FFE500"/>
<path d="M26.4733 10.1133C26.3219 10.1133 26.172 10.1434 26.0324 10.202C25.8928 10.2605 25.7662 10.3463 25.6601 10.4543C25.554 10.5623 25.4704 10.6903 25.4143 10.8309C25.3582 10.9716 25.3307 11.122 25.3333 11.2733V11.3333C25.3333 11.0062 25.2034 10.6925 24.9721 10.4612C24.7408 10.2299 24.4271 10.1 24.1 10.1C23.9299 10.1024 23.762 10.1393 23.6065 10.2083C23.451 10.2774 23.3111 10.3772 23.1952 10.5018C23.0793 10.6264 22.9899 10.7732 22.9323 10.9333C22.8747 11.0934 22.8501 11.2635 22.86 11.4333V12.4667C22.853 12.1602 22.725 11.8689 22.5038 11.6565C22.2827 11.4442 21.9865 11.328 21.68 11.3333C21.5236 11.3368 21.3694 11.3711 21.2263 11.4344C21.0832 11.4977 20.954 11.5886 20.8462 11.702C20.7384 11.8154 20.6541 11.949 20.5981 12.0951C20.5421 12.2412 20.5156 12.3969 20.52 12.5533V11.1533C20.5156 10.9966 20.5421 10.8405 20.598 10.6941C20.6539 10.5476 20.7381 10.4135 20.8458 10.2996C20.9535 10.1857 21.0827 10.0941 21.2258 10.0301C21.3689 9.96615 21.5233 9.93099 21.68 9.92667C21.9877 9.92667 22.2827 10.0489 22.5003 10.2664C22.7178 10.484 22.84 10.779 22.84 11.0867V10.04C22.8301 9.87014 22.8547 9.70003 22.9123 9.53993C22.9699 9.37983 23.0593 9.23306 23.1752 9.10847C23.2911 8.98387 23.431 8.88403 23.5865 8.81498C23.742 8.74592 23.9099 8.70908 24.08 8.70667C24.2488 8.70373 24.4164 8.73548 24.5725 8.79996C24.7285 8.86444 24.8697 8.96027 24.9872 9.08152C25.1047 9.20277 25.196 9.34685 25.2556 9.50484C25.3151 9.66283 25.3416 9.83136 25.3333 10V9.92667C25.3306 9.77359 25.3588 9.62153 25.4161 9.47957C25.4735 9.33761 25.5588 9.20865 25.6671 9.10039C25.7753 8.99213 25.9043 8.90678 26.0462 8.84945C26.1882 8.79211 26.3403 8.76396 26.4933 8.76667C26.801 8.76667 27.096 8.88888 27.3136 9.10642C27.5311 9.32397 27.6533 9.61902 27.6533 9.92667V11.3C27.657 11.1437 27.629 10.9884 27.571 10.8432C27.5131 10.698 27.4264 10.5661 27.3162 10.4552C27.206 10.3444 27.0745 10.257 26.9297 10.1982C26.7848 10.1395 26.6296 10.1106 26.4733 10.1133Z" fill="#FFF48C"/>
<path d="M28.6667 12.2133C28.533 12.2125 28.4006 12.238 28.2768 12.2885C28.1531 12.3391 28.0406 12.4136 27.9458 12.5078C27.851 12.6019 27.7758 12.714 27.7244 12.8373C27.6731 12.9607 27.6467 13.093 27.6467 13.2267V11.8533C27.6201 11.7048 27.6267 11.5522 27.6662 11.4065C27.7057 11.2609 27.777 11.1258 27.875 11.011C27.973 10.8963 28.0952 10.8047 28.2329 10.7429C28.3705 10.6811 28.5202 10.6506 28.6711 10.6536C28.8219 10.6566 28.9703 10.6931 29.1054 10.7603C29.2404 10.8276 29.3589 10.924 29.4522 11.0426C29.5456 11.1612 29.6114 11.299 29.645 11.4461C29.6787 11.5932 29.6792 11.746 29.6467 11.8933V13.2667C29.6557 12.9972 29.5577 12.7352 29.374 12.5378C29.1904 12.3404 28.9361 12.2238 28.6667 12.2133Z" fill="#FFF48C"/>
<path d="M24.98 19.5C23.4155 19.3531 21.8422 19.3242 20.2734 19.4133C19.1467 18.7467 17.8467 18.2267 17.1067 18.8067L16.9134 18.5933C16.7977 18.4761 16.7329 18.318 16.7329 18.1533C16.7329 17.9886 16.7977 17.8306 16.9134 17.7133C17.2661 17.3625 17.7412 17.1622 18.2386 17.1548C18.736 17.1473 19.217 17.3332 19.58 17.6733L20.4934 18.5333H22.8467C23.2513 18.5286 23.6521 18.6128 24.0207 18.7798C24.3893 18.9468 24.7168 19.1927 24.98 19.5Z" fill="#FFF48C"/>
<path d="M27.6334 11.8533V15.8333" stroke="#45413C" stroke-linecap="round" stroke-linejoin="round"/>
<path d="M25.3134 9.97334V15.8333" stroke="#45413C" stroke-linecap="round" stroke-linejoin="round"/>
<path d="M22.84 11.0867V15.8333" stroke="#45413C" stroke-linecap="round" stroke-linejoin="round"/>
<path d="M20.52 18.5333H22.8734C23.2735 18.5325 23.6691 18.6185 24.0328 18.7854C24.3965 18.9523 24.7197 19.1961 24.98 19.5" stroke="#45413C" stroke-linecap="round" stroke-linejoin="round"/>
<path d="M19.6067 17.6733L20.52 18.5333V11.1533C20.5156 10.9966 20.542 10.8405 20.5979 10.6941C20.6538 10.5476 20.7381 10.4135 20.8458 10.2996C20.9535 10.1857 21.0826 10.0941 21.2258 10.0301C21.3689 9.96615 21.5233 9.93099 21.68 9.92667C21.9876 9.92667 22.2827 10.0489 22.5002 10.2664C22.7178 10.484 22.84 10.779 22.84 11.0867V10.04C22.8301 9.87014 22.8547 9.70003 22.9123 9.53993C22.9699 9.37983 23.0593 9.23306 23.1752 9.10847C23.2911 8.98387 23.431 8.88403 23.5865 8.81498C23.742 8.74592 23.9099 8.70908 24.08 8.70667C24.2488 8.70373 24.4164 8.73548 24.5725 8.79996C24.7285 8.86444 24.8697 8.96027 24.9871 9.08152C25.1046 9.20277 25.196 9.34685 25.2555 9.50484C25.3151 9.66283 25.3416 9.83136 25.3333 10V9.92667C25.3306 9.77359 25.3588 9.62153 25.4161 9.47957C25.4734 9.33761 25.5588 9.20865 25.667 9.10039C25.7753 8.99213 25.9043 8.90678 26.0462 8.84945C26.1882 8.79211 26.3402 8.76396 26.4933 8.76667C26.801 8.76667 27.096 8.88888 27.3136 9.10642C27.5311 9.32397 27.6533 9.61902 27.6533 9.92667V11.88C27.6267 11.7315 27.6334 11.5789 27.6728 11.4332C27.7123 11.2876 27.7836 11.1525 27.8816 11.0377C27.9796 10.9229 28.1018 10.8314 28.2395 10.7695C28.3772 10.7077 28.5268 10.6772 28.6777 10.6802C28.8286 10.6833 28.9769 10.7197 29.112 10.787C29.2471 10.8543 29.3656 10.9507 29.4589 11.0693C29.5522 11.1879 29.6181 11.3257 29.6517 11.4728C29.6853 11.6199 29.6859 11.7726 29.6533 11.92V20.2333C29.6586 21.3779 29.2095 22.4778 28.4045 23.2916C27.5996 24.1053 26.5046 24.5663 25.36 24.5733C24.4169 24.5742 23.4843 24.3764 22.6228 23.9927C21.7613 23.609 20.9903 23.0482 20.36 22.3467L16.9 18.5933C16.7844 18.4761 16.7195 18.318 16.7195 18.1533C16.7195 17.9887 16.7844 17.8306 16.9 17.7133C17.2544 17.3505 17.738 17.1427 18.2451 17.1352C18.7522 17.1277 19.2417 17.3212 19.6067 17.6733Z" stroke="#45413C" stroke-linecap="round" stroke-linejoin="round"/>
<path opacity="0.15" d="M16 31.3333C20.0501 31.3333 23.3334 30.8856 23.3334 30.3333C23.3334 29.781 20.0501 29.3333 16 29.3333C11.9499 29.3333 8.66669 29.781 8.66669 30.3333C8.66669 30.8856 11.9499 31.3333 16 31.3333Z" fill="#45413C"/>
</svg>
